# xmcd
#
# Track frame offsets: 
#        182
#        20955
#        36922
#        58340
#        78190
#        92987
#        116482
#        135405
#        159435
#        172955
#        189797
#        214155
#
# Disc length: 3145 seconds
#
# Revision: 1
# Processed by: cddbd v1.5.2PL0 Copyright (c) Steve Scherf et al.
# Submitted via: ExactAudioCopyFreeDBPlugin 1.0
#
DISCID=9d0c470c
DTITLE=Martyna Jakubowicz - Kołysz mnie CD2
DYEAR=1992
DGENRE=Blues
TTITLE0=W domach z betonu nie ma wolnej miłości
TTITLE1=Rosa taka sama od lat
TTITLE2=Ludzie błądzą
TTITLE3=Gdyby nie nasz fart
TTITLE4=Wróżba nie służba
TTITLE5=Wschodnia wioska
TTITLE6=Wiedza jest grzechem
TTITLE7=Baby w Meksyku
TTITLE8=Kretyni i osły
TTITLE9=Wokół strażniczych wież
TTITLE10=Chodź i usiądź obok mnie
TTITLE11=Chcć ci dać trochę wiary w cud (Kołysanka dla Misiaków)
EXTD=http://nav.to/wojtus                                       (colle
EXTD=ction)
EXTT0=
EXTT1=
EXTT2=
EXTT3=
EXTT4=
EXTT5=
EXTT6=
EXTT7=
EXTT8=
EXTT9=
EXTT10=
EXTT11=
PLAYORDER=
